ISO-10303-21;
HEADER;
FILE_DESCRIPTION (( 'STEP AP214' ),
    '1' );
FILE_NAME ('tankVolumeCalculator.STEP',
    '2026-07-22T01:26:09',
    ( '' ),
    ( '' ),
    'SwSTEP 2.0',
    'SolidWorks 2025',
    '' );
FILE_SCHEMA (( 'AUTOMOTIVE_DESIGN' ));
ENDSEC;

DATA;
#1 = ORIENTED_EDGE ( 'NONE', *, *, #71, .F. ) ;
#2 = ORIENTED_EDGE ( 'NONE', *, *, #232, .F. ) ;
#3 = EDGE_LOOP ( 'NONE', ( #121, #64, #145, #1, #228 ) ) ;
#4 = CARTESIAN_POINT ( 'NONE',  ( 0.000000000000000000, 0.000000000000000000, 0.000000000000000000 ) ) ;
#5 = DIRECTION ( 'NONE',  ( -1.000000000000000000, 0.000000000000000000, 0.000000000000000000 ) ) ;
#6 = CIRCLE ( 'NONE', #105, 744.9999999999998863 ) ;
#7 = AXIS2_PLACEMENT_3D ( 'NONE', #196, #219, #216 ) ;
#8 = LINE ( 'NONE', #89, #243 ) ;
#9 = PRODUCT_CONTEXT ( 'NONE', #137, 'mechanical' ) ;
#10 = ORIENTED_EDGE ( 'NONE', *, *, #66, .T. ) ;
#11 = ORIENTED_EDGE ( 'NONE', *, *, #88, .T. ) ;
#12 = AXIS2_PLACEMENT_3D ( 'NONE', #61, #60, #63 ) ;
#13 = EDGE_CURVE ( 'NONE', #248, #210, #129, .T. ) ;
#14 = DIRECTION ( 'NONE',  ( 0.000000000000000000, 0.000000000000000000, -1.000000000000000000 ) ) ;
#15 = DIRECTION ( 'NONE',  ( -0.000000000000000000, -1.000000000000000000, -0.000000000000000000 ) ) ;
#16 = SPHERICAL_SURFACE ( 'NONE', #111, 744.9999999999998863 ) ;
#17 = ADVANCED_FACE ( 'NONE', ( #233 ), #73, .T. ) ;
#18 =( NAMED_UNIT ( * ) PLANE_ANGLE_UNIT ( ) SI_UNIT ( $, .RADIAN. ) );
#19 = AXIS2_PLACEMENT_3D ( 'NONE', #205, #189, #173 ) ;
#20 = DIRECTION ( 'NONE',  ( 0.000000000000000000, -1.000000000000000000, -0.000000000000000000 ) ) ;
#21 = VERTEX_POINT ( 'NONE', #148 ) ;
#22 = VERTEX_POINT ( 'NONE', #149 ) ;
#23 = MECHANICAL_DESIGN_GEOMETRIC_PRESENTATION_REPRESENTATION (  '', ( #186 ), #221 ) ;
#24 = EDGE_LOOP ( 'NONE', ( #86, #44, #227, #141, #163 ) ) ;
#25 = ADVANCED_BREP_SHAPE_REPRESENTATION ( 'tankVolumeCalculator', ( #214, #234 ), #122 ) ;
#26 = PRODUCT_RELATED_PRODUCT_CATEGORY ( 'part', '', ( #56 ) ) ;
#27 = CARTESIAN_POINT ( 'NONE',  ( 0.000000000000000000, 0.000000000000000000, 0.000000000000000000 ) ) ;
#28 = DIRECTION ( 'NONE',  ( 0.000000000000000000, -0.000000000000000000, 1.000000000000000000 ) ) ;
#29 = AXIS2_PLACEMENT_3D ( 'NONE', #4, #50, #110 ) ;
#30 = DIRECTION ( 'NONE',  ( 0.000000000000000000, 0.000000000000000000, -1.000000000000000000 ) ) ;
#31 = EDGE_CURVE ( 'NONE', #42, #47, #49, .T. ) ;
#32 = CARTESIAN_POINT ( 'NONE',  ( 0.000000000000000000, 127.2763411732452994, 0.000000000000000000 ) ) ;
#33 = CARTESIAN_POINT ( 'NONE',  ( -171.4642819948219881, 0.000000000000000000, 3.049321153708161585E-14 ) ) ;
#34 = CARTESIAN_POINT ( 'NONE',  ( 0.000000000000000000, 725.0000000000000000, 0.000000000000000000 ) ) ;
#35 = CIRCLE ( 'NONE', #90, 79.99999999999990052 ) ;
#36 = CARTESIAN_POINT ( 'NONE',  ( 0.000000000000000000, 0.000000000000000000, -371.4642819948224997 ) ) ;
#37 = CARTESIAN_POINT ( 'NONE',  ( 0.000000000000000000, 127.2763411732452994, 0.000000000000000000 ) ) ;
#38 = CARTESIAN_POINT ( 'NONE',  ( 0.000000000000000000, 127.2763411732452994, -291.4642819948226133 ) ) ;
#39 = DIRECTION ( 'NONE',  ( -0.000000000000000000, -1.000000000000000000, -0.000000000000000000 ) ) ;
#40 = ADVANCED_FACE ( 'NONE', ( #236 ), #150, .T. ) ;
#41 = EDGE_LOOP ( 'NONE', ( #190, #159 ) ) ;
#42 = VERTEX_POINT ( 'NONE', #168 ) ;
#43 = ADVANCED_FACE ( 'NONE', ( #95 ), #213, .T. ) ;
#44 = ORIENTED_EDGE ( 'NONE', *, *, #193, .T. ) ;
#45 = ADVANCED_FACE ( 'NONE', ( #74 ), #237, .T. ) ;
#46 = AXIS2_PLACEMENT_3D ( 'NONE', #114, #201, #131 ) ;
#47 = VERTEX_POINT ( 'NONE', #217 ) ;
#48 = EDGE_CURVE ( 'NONE', #22, #210, #171, .T. ) ;
#49 = CIRCLE ( 'NONE', #182, 371.4642819948224997 ) ;
#50 = DIRECTION ( 'NONE',  ( -0.000000000000000000, -1.000000000000000000, -0.000000000000000000 ) ) ;
#51 = DIRECTION ( 'NONE',  ( 0.000000000000000000, 0.000000000000000000, -1.000000000000000000 ) ) ;
#52 = DIRECTION ( 'NONE',  ( 0.000000000000000000, 1.000000000000000000, 0.000000000000000000 ) ) ;
#53 = CYLINDRICAL_SURFACE ( 'NONE', #146, 371.4642819948224997 ) ;
#54 = CIRCLE ( 'NONE', #188, 326.5276542648763893 ) ;
#55 = CARTESIAN_POINT ( 'NONE',  ( 0.000000000000000000, 750.0000000000000000, 0.000000000000000000 ) ) ;
#56 = PRODUCT ( 'tankVolumeCalculator', 'tankVolumeCalculator', '', ( #9 ) ) ;
#57 = DIRECTION ( 'NONE',  ( 0.000000000000000000, 0.000000000000000000, 1.000000000000000000 ) ) ;
#58 = DIRECTION ( 'NONE',  ( -0.000000000000000000, -1.000000000000000000, -0.000000000000000000 ) ) ;
#59 = PRESENTATION_STYLE_ASSIGNMENT (( #244 ) ) ;
#60 = DIRECTION ( 'NONE',  ( 1.000000000000000000, 0.000000000000000000, -1.224646799147353207E-16 ) ) ;
#61 = CARTESIAN_POINT ( 'NONE',  ( 3.569408000107410156E-14, 127.2763411732452994, 291.4642819948226133 ) ) ;
#62 = VERTEX_POINT ( 'NONE', #72 ) ;
#63 = DIRECTION ( 'NONE',  ( -1.224646799147353207E-16, 0.000000000000000000, -1.000000000000000000 ) ) ;
#64 = ORIENTED_EDGE ( 'NONE', *, *, #177, .T. ) ;
#65 = ORIENTED_EDGE ( 'NONE', *, *, #92, .F. ) ;
#66 = EDGE_CURVE ( 'NONE', #47, #42, #218, .T. ) ;
#67 = AXIS2_PLACEMENT_3D ( 'NONE', #70, #215, #102 ) ;
#68 = ORIENTED_EDGE ( 'NONE', *, *, #133, .T. ) ;
#69 = COLOUR_RGB ( '',0.7921568627450980005, 0.8196078431372548767, 0.9333333333333333481 ) ;
#70 = CARTESIAN_POINT ( 'NONE',  ( 0.000000000000000000, 55.36973560010196849, 0.000000000000000000 ) ) ;
#71 = EDGE_CURVE ( 'NONE', #210, #248, #91, .T. ) ;
#72 = CARTESIAN_POINT ( 'NONE',  ( 4.273967952855518115E-14, 55.36973560010196849, 326.5276542648763893 ) ) ;
#73 = PLANE ( 'NONE',  #246 ) ;
#74 = FACE_OUTER_BOUND ( 'NONE', #207, .T. ) ;
#75 =( NAMED_UNIT ( * ) SI_UNIT ( $, .STERADIAN. ) SOLID_ANGLE_UNIT ( ) );
#76 = CARTESIAN_POINT ( 'NONE',  ( 0.000000000000000000, 0.000000000000000000, 0.000000000000000000 ) ) ;
#77 = DIRECTION ( 'NONE',  ( 1.000000000000000000, 0.000000000000000000, 0.000000000000000000 ) ) ;
#78 = CARTESIAN_POINT ( 'NONE',  ( 171.4642819948219881, 0.000000000000000000, 0.000000000000000000 ) ) ;
#79 = AXIS2_PLACEMENT_3D ( 'NONE', #153, #39, #14 ) ;
#80 = CARTESIAN_POINT ( 'NONE',  ( 0.000000000000000000, 0.000000000000000000, 0.000000000000000000 ) ) ;
#81 = PRODUCT_DEFINITION_CONTEXT ( 'detailed design', #118, 'design' ) ;
#82 = DIRECTION ( 'NONE',  ( 0.000000000000000000, 0.000000000000000000, -1.000000000000000000 ) ) ;
#83 = CIRCLE ( 'NONE', #127, 371.4642819948225565 ) ;
#84 = EDGE_LOOP ( 'NONE', ( #161, #175, #174, #104, #191 ) ) ;
#85 = VERTEX_POINT ( 'NONE', #180 ) ;
#86 = ORIENTED_EDGE ( 'NONE', *, *, #92, .T. ) ;
#87 = AXIS2_PLACEMENT_3D ( 'NONE', #178, #195, #5 ) ;
#88 = EDGE_CURVE ( 'NONE', #47, #176, #8, .T. ) ;
#89 = CARTESIAN_POINT ( 'NONE',  ( 4.549125439425291972E-14, 0.000000000000000000, 371.4642819948224997 ) ) ;
#90 = AXIS2_PLACEMENT_3D ( 'NONE', #38, #100, #139 ) ;
#91 = CIRCLE ( 'NONE', #29, 171.4642819948219881 ) ;
#92 = EDGE_CURVE ( 'NONE', #85, #176, #101, .T. ) ;
#93 = DIRECTION ( 'NONE',  ( -0.000000000000000000, -1.000000000000000000, -0.000000000000000000 ) ) ;
#94 = CARTESIAN_POINT ( 'NONE',  ( 0.000000000000000000, 0.000000000000000000, 0.000000000000000000 ) ) ;
#95 = FACE_OUTER_BOUND ( 'NONE', #24, .T. ) ;
#96 = DIRECTION ( 'NONE',  ( 1.000000000000000000, 0.000000000000000000, -1.224646799147353207E-16 ) ) ;
#97 = FILL_AREA_STYLE_COLOUR ( '', #69 ) ;
#98 = FACE_OUTER_BOUND ( 'NONE', #165, .T. ) ;
#99 = EDGE_CURVE ( 'NONE', #21, #194, #154, .T. ) ;
#100 = DIRECTION ( 'NONE',  ( -1.000000000000000000, 0.000000000000000000, 0.000000000000000000 ) ) ;
#101 = CIRCLE ( 'NONE', #143, 371.4642819948225565 ) ;
#102 = DIRECTION ( 'NONE',  ( 0.000000000000000000, 0.000000000000000000, -1.000000000000000000 ) ) ;
#103 = EDGE_CURVE ( 'NONE', #194, #22, #179, .T. ) ;
#104 = ORIENTED_EDGE ( 'NONE', *, *, #99, .F. ) ;
#105 = AXIS2_PLACEMENT_3D ( 'NONE', #34, #136, #96 ) ;
#106 = ORIENTED_EDGE ( 'NONE', *, *, #235, .F. ) ;
#107 = ORIENTED_EDGE ( 'NONE', *, *, #88, .F. ) ;
#108 = DIRECTION ( 'NONE',  ( 0.000000000000000000, 0.000000000000000000, -1.000000000000000000 ) ) ;
#109 = ORIENTED_EDGE ( 'NONE', *, *, #48, .T. ) ;
#110 = DIRECTION ( 'NONE',  ( 0.000000000000000000, 0.000000000000000000, -1.000000000000000000 ) ) ;
#111 = AXIS2_PLACEMENT_3D ( 'NONE', #135, #138, #77 ) ;
#112 = ORIENTED_EDGE ( 'NONE', *, *, #71, .T. ) ;
#113 = AXIS2_PLACEMENT_3D ( 'NONE', #94, #184, #167 ) ;
#114 = CARTESIAN_POINT ( 'NONE',  ( 0.000000000000000000, 750.0000000000000000, 0.000000000000000000 ) ) ;
#115 =( NAMED_UNIT ( * ) SI_UNIT ( $, .STERADIAN. ) SOLID_ANGLE_UNIT ( ) );
#116 =( LENGTH_UNIT ( ) NAMED_UNIT ( * ) SI_UNIT ( .MILLI., .METRE. ) );
#117 = CARTESIAN_POINT ( 'NONE',  ( 4.549125439425291341E-14, 127.2763411732452994, 371.4642819948224997 ) ) ;
#118 = APPLICATION_CONTEXT ( 'automotive_design' ) ;
#119 = DIRECTION ( 'NONE',  ( -0.000000000000000000, -1.000000000000000000, -0.000000000000000000 ) ) ;
#120 = ORIENTED_EDGE ( 'NONE', *, *, #31, .T. ) ;
#121 = ORIENTED_EDGE ( 'NONE', *, *, #162, .T. ) ;
#122 =( GEOMETRIC_REPRESENTATION_CONTEXT ( 3 ) GLOBAL_UNCERTAINTY_ASSIGNED_CONTEXT ( ( #202 ) ) GLOBAL_UNIT_ASSIGNED_CONTEXT ( ( #116, #152, #75 ) ) REPRESENTATION_CONTEXT ( 'NONE', 'WORKASPACE' ) );
#123 = EDGE_LOOP ( 'NONE', ( #107, #10, #68, #106 ) ) ;
#124 = AXIS2_PLACEMENT_3D ( 'NONE', #147, #239, #51 ) ;
#125 = ORIENTED_EDGE ( 'NONE', *, *, #13, .T. ) ;
#126 = AXIS2_PLACEMENT_3D ( 'NONE', #27, #128, #108 ) ;
#127 = AXIS2_PLACEMENT_3D ( 'NONE', #37, #203, #169 ) ;
#128 = DIRECTION ( 'NONE',  ( -0.000000000000000000, -1.000000000000000000, -0.000000000000000000 ) ) ;
#129 = CIRCLE ( 'NONE', #126, 171.4642819948219881 ) ;
#130 = DIRECTION ( 'NONE',  ( 0.000000000000000000, 0.000000000000000000, -1.000000000000000000 ) ) ;
#131 = DIRECTION ( 'NONE',  ( 0.000000000000000000, 0.000000000000000000, -1.000000000000000000 ) ) ;
#132 = VECTOR ( 'NONE', #58, 1000.000000000000000 ) ;
#133 = EDGE_CURVE ( 'NONE', #42, #85, #170, .T. ) ;
#134 = DIRECTION ( 'NONE',  ( 0.000000000000000000, 0.000000000000000000, -1.000000000000000000 ) ) ;
#135 = CARTESIAN_POINT ( 'NONE',  ( 0.000000000000000000, 725.0000000000000000, 0.000000000000000000 ) ) ;
#136 = DIRECTION ( 'NONE',  ( 1.224646799147353207E-16, -0.000000000000000000, 1.000000000000000000 ) ) ;
#137 = APPLICATION_CONTEXT ( 'automotive_design' ) ;
#138 = DIRECTION ( 'NONE',  ( 0.000000000000000000, 0.000000000000000000, 1.000000000000000000 ) ) ;
#139 = DIRECTION ( 'NONE',  ( 0.000000000000000000, 0.000000000000000000, 1.000000000000000000 ) ) ;
#140 = UNCERTAINTY_MEASURE_WITH_UNIT (LENGTH_MEASURE( 1.000000000000000082E-05 ), #204, 'distance_accuracy_value', 'NONE');
#141 = ORIENTED_EDGE ( 'NONE', *, *, #103, .F. ) ;
#142 = ORIENTED_EDGE ( 'NONE', *, *, #133, .F. ) ;
#143 = AXIS2_PLACEMENT_3D ( 'NONE', #32, #198, #30 ) ;
#144 = ADVANCED_FACE ( 'NONE', ( #157 ), #230, .T. ) ;
#145 = ORIENTED_EDGE ( 'NONE', *, *, #232, .T. ) ;
#146 = AXIS2_PLACEMENT_3D ( 'NONE', #76, #15, #134 ) ;
#147 = CARTESIAN_POINT ( 'NONE',  ( 0.000000000000000000, 127.2763411732452994, 0.000000000000000000 ) ) ;
#148 = CARTESIAN_POINT ( 'NONE',  ( -326.5276542648762756, 55.36973560010201112, 3.998810466285743627E-14 ) ) ;
#149 = CARTESIAN_POINT ( 'NONE',  ( 326.5276542648762756, 55.36973560010201112, 0.000000000000000000 ) ) ;
#150 = CYLINDRICAL_SURFACE ( 'NONE', #113, 371.4642819948224997 ) ;
#151 = ADVANCED_FACE ( 'NONE', ( #247 ), #16, .T. ) ;
#152 =( NAMED_UNIT ( * ) PLANE_ANGLE_UNIT ( ) SI_UNIT ( $, .RADIAN. ) );
#153 = CARTESIAN_POINT ( 'NONE',  ( 0.000000000000000000, 55.36973560010196849, 0.000000000000000000 ) ) ;
#154 = CIRCLE ( 'NONE', #67, 326.5276542648763893 ) ;
#155 = FILL_AREA_STYLE ('',( #97 ) ) ;
#156 = PLANE ( 'NONE',  #164 ) ;
#157 = FACE_OUTER_BOUND ( 'NONE', #84, .T. ) ;
#158 = PRODUCT_DEFINITION_FORMATION_WITH_SPECIFIED_SOURCE ( 'ANY', '', #56, .NOT_KNOWN. ) ;
#159 = ORIENTED_EDGE ( 'NONE', *, *, #66, .F. ) ;
#160 = ADVANCED_FACE ( 'NONE', ( #98 ), #156, .T. ) ;
#161 = ORIENTED_EDGE ( 'NONE', *, *, #193, .F. ) ;
#162 = EDGE_CURVE ( 'NONE', #22, #62, #54, .T. ) ;
#163 = ORIENTED_EDGE ( 'NONE', *, *, #231, .F. ) ;
#164 = AXIS2_PLACEMENT_3D ( 'NONE', #80, #20, #82 ) ;
#165 = EDGE_LOOP ( 'NONE', ( #112, #125 ) ) ;
#166 = CARTESIAN_POINT ( 'NONE',  ( 0.000000000000000000, 750.0000000000000000, 0.000000000000000000 ) ) ;
#167 = DIRECTION ( 'NONE',  ( 0.000000000000000000, 0.000000000000000000, -1.000000000000000000 ) ) ;
#168 = CARTESIAN_POINT ( 'NONE',  ( 0.000000000000000000, 750.0000000000000000, -371.4642819948224997 ) ) ;
#169 = DIRECTION ( 'NONE',  ( 0.000000000000000000, 0.000000000000000000, -1.000000000000000000 ) ) ;
#170 = LINE ( 'NONE', #36, #132 ) ;
#171 = CIRCLE ( 'NONE', #87, 744.9999999999998863 ) ;
#172 = DIRECTION ( 'NONE',  ( -0.000000000000000000, -1.000000000000000000, -0.000000000000000000 ) ) ;
#173 = DIRECTION ( 'NONE',  ( 0.000000000000000000, 0.000000000000000000, -1.000000000000000000 ) ) ;
#174 = ORIENTED_EDGE ( 'NONE', *, *, #231, .T. ) ;
#175 = ORIENTED_EDGE ( 'NONE', *, *, #235, .T. ) ;
#176 = VERTEX_POINT ( 'NONE', #117 ) ;
#177 = EDGE_CURVE ( 'NONE', #62, #21, #223, .T. ) ;
#178 = CARTESIAN_POINT ( 'NONE',  ( 0.000000000000000000, 725.0000000000000000, 0.000000000000000000 ) ) ;
#179 = CIRCLE ( 'NONE', #197, 326.5276542648763893 ) ;
#180 = CARTESIAN_POINT ( 'NONE',  ( 0.000000000000000000, 127.2763411732452994, -371.4642819948224997 ) ) ;
#181 = DIRECTION ( 'NONE',  ( -0.000000000000000000, -1.000000000000000000, -0.000000000000000000 ) ) ;
#182 = AXIS2_PLACEMENT_3D ( 'NONE', #166, #181, #130 ) ;
#183 = CARTESIAN_POINT ( 'NONE',  ( 0.000000000000000000, 0.000000000000000000, 0.000000000000000000 ) ) ;
#184 = DIRECTION ( 'NONE',  ( -0.000000000000000000, -1.000000000000000000, -0.000000000000000000 ) ) ;
#185 = APPLICATION_PROTOCOL_DEFINITION ( 'draft international standard', 'automotive_design', 1998, #118 ) ;
#186 = STYLED_ITEM ( 'NONE', ( #59 ), #214 ) ;
#187 = CARTESIAN_POINT ( 'NONE',  ( 0.000000000000000000, 55.36973560010196849, -326.5276542648763893 ) ) ;
#188 = AXIS2_PLACEMENT_3D ( 'NONE', #224, #172, #226 ) ;
#189 = DIRECTION ( 'NONE',  ( -0.000000000000000000, -1.000000000000000000, -0.000000000000000000 ) ) ;
#190 = ORIENTED_EDGE ( 'NONE', *, *, #31, .F. ) ;
#191 = ORIENTED_EDGE ( 'NONE', *, *, #177, .F. ) ;
#192 = ORIENTED_EDGE ( 'NONE', *, *, #103, .T. ) ;
#193 = EDGE_CURVE ( 'NONE', #176, #62, #211, .T. ) ;
#194 = VERTEX_POINT ( 'NONE', #187 ) ;
#195 = DIRECTION ( 'NONE',  ( 0.000000000000000000, 0.000000000000000000, -1.000000000000000000 ) ) ;
#196 = CARTESIAN_POINT ( 'NONE',  ( 0.000000000000000000, 725.0000000000000000, 0.000000000000000000 ) ) ;
#197 = AXIS2_PLACEMENT_3D ( 'NONE', #242, #119, #208 ) ;
#198 = DIRECTION ( 'NONE',  ( -0.000000000000000000, -1.000000000000000000, -0.000000000000000000 ) ) ;
#199 = PRODUCT_DEFINITION ( 'UNKNOWN', '', #158, #81 ) ;
#200 = DIRECTION ( 'NONE',  ( 1.000000000000000000, 0.000000000000000000, 0.000000000000000000 ) ) ;
#201 = DIRECTION ( 'NONE',  ( -0.000000000000000000, -1.000000000000000000, -0.000000000000000000 ) ) ;
#202 = UNCERTAINTY_MEASURE_WITH_UNIT (LENGTH_MEASURE( 1.000000000000000082E-05 ), #116, 'distance_accuracy_value', 'NONE');
#203 = DIRECTION ( 'NONE',  ( -0.000000000000000000, -1.000000000000000000, -0.000000000000000000 ) ) ;
#204 =( LENGTH_UNIT ( ) NAMED_UNIT ( * ) SI_UNIT ( .MILLI., .METRE. ) );
#205 = CARTESIAN_POINT ( 'NONE',  ( 0.000000000000000000, 127.2763411732452994, 0.000000000000000000 ) ) ;
#206 = SURFACE_STYLE_FILL_AREA ( #155 ) ;
#207 = EDGE_LOOP ( 'NONE', ( #2, #209, #192, #109, #212 ) ) ;
#208 = DIRECTION ( 'NONE',  ( 0.000000000000000000, 0.000000000000000000, -1.000000000000000000 ) ) ;
#209 = ORIENTED_EDGE ( 'NONE', *, *, #99, .T. ) ;
#210 = VERTEX_POINT ( 'NONE', #78 ) ;
#211 = CIRCLE ( 'NONE', #12, 79.99999999999990052 ) ;
#212 = ORIENTED_EDGE ( 'NONE', *, *, #13, .F. ) ;
#213 = TOROIDAL_SURFACE ( 'NONE', #124, 291.4642819948226133, 79.99999999999990052 ) ;
#214 = MANIFOLD_SOLID_BREP ( 'Revolve1', #229 ) ;
#215 = DIRECTION ( 'NONE',  ( -0.000000000000000000, -1.000000000000000000, -0.000000000000000000 ) ) ;
#216 = DIRECTION ( 'NONE',  ( 1.000000000000000000, 0.000000000000000000, 0.000000000000000000 ) ) ;
#217 = CARTESIAN_POINT ( 'NONE',  ( 4.549125439425291972E-14, 750.0000000000000000, 371.4642819948224997 ) ) ;
#218 = CIRCLE ( 'NONE', #46, 371.4642819948224997 ) ;
#219 = DIRECTION ( 'NONE',  ( 0.000000000000000000, 0.000000000000000000, 1.000000000000000000 ) ) ;
#220 = SHAPE_DEFINITION_REPRESENTATION ( #240, #25 ) ;
#221 =( GEOMETRIC_REPRESENTATION_CONTEXT ( 3 ) GLOBAL_UNCERTAINTY_ASSIGNED_CONTEXT ( ( #140 ) ) GLOBAL_UNIT_ASSIGNED_CONTEXT ( ( #204, #18, #115 ) ) REPRESENTATION_CONTEXT ( 'NONE', 'WORKASPACE' ) );
#222 = SURFACE_SIDE_STYLE ('',( #206 ) ) ;
#223 = CIRCLE ( 'NONE', #79, 326.5276542648763893 ) ;
#224 = CARTESIAN_POINT ( 'NONE',  ( 0.000000000000000000, 55.36973560010196849, 0.000000000000000000 ) ) ;
#225 = EDGE_LOOP ( 'NONE', ( #120, #11, #65, #142 ) ) ;
#226 = DIRECTION ( 'NONE',  ( 0.000000000000000000, 0.000000000000000000, -1.000000000000000000 ) ) ;
#227 = ORIENTED_EDGE ( 'NONE', *, *, #162, .F. ) ;
#228 = ORIENTED_EDGE ( 'NONE', *, *, #48, .F. ) ;
#229 = CLOSED_SHELL ( 'NONE', ( #40, #43, #151, #17, #160, #45, #144, #245 ) ) ;
#230 = TOROIDAL_SURFACE ( 'NONE', #19, 291.4642819948226133, 79.99999999999990052 ) ;
#231 = EDGE_CURVE ( 'NONE', #85, #194, #35, .T. ) ;
#232 = EDGE_CURVE ( 'NONE', #21, #248, #6, .T. ) ;
#233 = FACE_OUTER_BOUND ( 'NONE', #41, .T. ) ;
#234 = AXIS2_PLACEMENT_3D ( 'NONE', #183, #57, #200 ) ;
#235 = EDGE_CURVE ( 'NONE', #176, #85, #83, .T. ) ;
#236 = FACE_OUTER_BOUND ( 'NONE', #225, .T. ) ;
#237 = SPHERICAL_SURFACE ( 'NONE', #7, 744.9999999999998863 ) ;
#238 = APPLICATION_PROTOCOL_DEFINITION ( 'draft international standard', 'automotive_design', 1998, #137 ) ;
#239 = DIRECTION ( 'NONE',  ( -0.000000000000000000, -1.000000000000000000, -0.000000000000000000 ) ) ;
#240 = PRODUCT_DEFINITION_SHAPE ( 'NONE', 'NONE',  #199 ) ;
#241 = FACE_OUTER_BOUND ( 'NONE', #123, .T. ) ;
#242 = CARTESIAN_POINT ( 'NONE',  ( 0.000000000000000000, 55.36973560010196849, 0.000000000000000000 ) ) ;
#243 = VECTOR ( 'NONE', #93, 1000.000000000000000 ) ;
#244 = SURFACE_STYLE_USAGE ( .BOTH. , #222 ) ;
#245 = ADVANCED_FACE ( 'NONE', ( #241 ), #53, .T. ) ;
#246 = AXIS2_PLACEMENT_3D ( 'NONE', #55, #52, #28 ) ;
#247 = FACE_OUTER_BOUND ( 'NONE', #3, .T. ) ;
#248 = VERTEX_POINT ( 'NONE', #33 ) ;
#249 = PRESENTATION_LAYER_ASSIGNMENT (  '', '', ( #186 ) ) ;
ENDSEC;
END-ISO-10303-21;
