ISO-10303-21;
HEADER;
FILE_DESCRIPTION (( 'STEP AP214' ),
    '1' );
FILE_NAME ('tankVolumeCalculatorV2.STEP',
    '2026-10-02T05:47:24',
    ( '' ),
    ( '' ),
    'SwSTEP 2.0',
    'SolidWorks 2025',
    '' );
FILE_SCHEMA (( 'AUTOMOTIVE_DESIGN' ));
ENDSEC;

DATA;
#1 = CARTESIAN_POINT ( 'NONE',  ( 0.000000000000000000, 170.0000000000000284, 0.000000000000000000 ) ) ;
#2 = CIRCLE ( 'NONE', #37, 305.0000000000001137 ) ;
#3 = DIRECTION ( 'NONE',  ( -0.000000000000000000, -1.000000000000000000, -0.000000000000000000 ) ) ;
#4 = EDGE_LOOP ( 'NONE', ( #142, #181, #44, #111 ) ) ;
#5 = FACE_OUTER_BOUND ( 'NONE', #54, .T. ) ;
#6 = PRODUCT_CONTEXT ( 'NONE', #38, 'mechanical' ) ;
#7 =( GEOMETRIC_REPRESENTATION_CONTEXT ( 3 ) GLOBAL_UNCERTAINTY_ASSIGNED_CONTEXT ( ( #114 ) ) GLOBAL_UNIT_ASSIGNED_CONTEXT ( ( #194, #77, #139 ) ) REPRESENTATION_CONTEXT ( 'NONE', 'WORKASPACE' ) );
#8 = EDGE_LOOP ( 'NONE', ( #102, #149, #31 ) ) ;
#9 = DIRECTION ( 'NONE',  ( -0.000000000000000000, -1.000000000000000000, -0.000000000000000000 ) ) ;
#10 = FACE_OUTER_BOUND ( 'NONE', #33, .T. ) ;
#11 = CLOSED_SHELL ( 'NONE', ( #167, #143, #68, #118, #99, #154, #135 ) ) ;
#12 = DIRECTION ( 'NONE',  ( -0.000000000000000000, -1.000000000000000000, -0.000000000000000000 ) ) ;
#13 = MANIFOLD_SOLID_BREP ( 'Revolve1', #11 ) ;
#14 = AXIS2_PLACEMENT_3D ( 'NONE', #96, #147, #182 ) ;
#15 = CARTESIAN_POINT ( 'NONE',  ( 0.000000000000000000, 170.0000000000000000, 0.000000000000000000 ) ) ;
#16 = ORIENTED_EDGE ( 'NONE', *, *, #189, .F. ) ;
#17 = DIRECTION ( 'NONE',  ( 0.000000000000000000, 0.000000000000000000, -1.000000000000000000 ) ) ;
#18 = ORIENTED_EDGE ( 'NONE', *, *, #64, .T. ) ;
#19 = ORIENTED_EDGE ( 'NONE', *, *, #184, .T. ) ;
#20 = CIRCLE ( 'NONE', #188, 305.0000000000001137 ) ;
#21 = FACE_OUTER_BOUND ( 'NONE', #8, .T. ) ;
#22 = LINE ( 'NONE', #80, #180 ) ;
#23 = AXIS2_PLACEMENT_3D ( 'NONE', #82, #70, #113 ) ;
#24 = DIRECTION ( 'NONE',  ( -1.000000000000000000, 0.000000000000000000, 0.000000000000000000 ) ) ;
#25 = ORIENTED_EDGE ( 'NONE', *, *, #127, .T. ) ;
#26 = FILL_AREA_STYLE ('',( #131 ) ) ;
#27 = ORIENTED_EDGE ( 'NONE', *, *, #137, .F. ) ;
#28 = CARTESIAN_POINT ( 'NONE',  ( 0.000000000000000000, 70.00000000000004263, 0.000000000000000000 ) ) ;
#29 = DIRECTION ( 'NONE',  ( 1.000000000000000000, 0.000000000000000000, -1.224646799147353207E-16 ) ) ;
#30 = CARTESIAN_POINT ( 'NONE',  ( 0.000000000000000000, 770.0000000000000000, 0.000000000000000000 ) ) ;
#31 = ORIENTED_EDGE ( 'NONE', *, *, #95, .F. ) ;
#32 = CYLINDRICAL_SURFACE ( 'NONE', #84, 375.0000000000000000 ) ;
#33 = EDGE_LOOP ( 'NONE', ( #62, #19, #36 ) ) ;
#34 = PRODUCT_DEFINITION_FORMATION_WITH_SPECIFIED_SOURCE ( 'ANY', '', #129, .NOT_KNOWN. ) ;
#35 = EDGE_LOOP ( 'NONE', ( #52, #126, #25, #178 ) ) ;
#36 = ORIENTED_EDGE ( 'NONE', *, *, #95, .T. ) ;
#37 = AXIS2_PLACEMENT_3D ( 'NONE', #28, #87, #61 ) ;
#38 = APPLICATION_CONTEXT ( 'automotive_design' ) ;
#39 = CARTESIAN_POINT ( 'NONE',  ( 0.000000000000000000, 799.6693674049826086, 22.99788760114351760 ) ) ;
#40 = CIRCLE ( 'NONE', #23, 106.4285714285714306 ) ;
#41 = DIRECTION ( 'NONE',  ( 0.000000000000000000, 0.000000000000000000, 1.000000000000000000 ) ) ;
#42 = DIRECTION ( 'NONE',  ( -0.000000000000000000, -1.000000000000000000, -0.000000000000000000 ) ) ;
#43 = STYLED_ITEM ( 'NONE', ( #164 ), #13 ) ;
#44 = ORIENTED_EDGE ( 'NONE', *, *, #112, .T. ) ;
#45 = AXIS2_PLACEMENT_3D ( 'NONE', #39, #24, #41 ) ;
#46 = DIRECTION ( 'NONE',  ( -1.224646799147353207E-16, 0.000000000000000000, -1.000000000000000000 ) ) ;
#47 = CARTESIAN_POINT ( 'NONE',  ( 0.000000000000000000, 770.0000000000000000, -375.0000000000000000 ) ) ;
#48 = APPLICATION_CONTEXT ( 'automotive_design' ) ;
#49 = ORIENTED_EDGE ( 'NONE', *, *, #172, .T. ) ;
#50 = AXIS2_PLACEMENT_3D ( 'NONE', #1, #176, #158 ) ;
#51 = UNCERTAINTY_MEASURE_WITH_UNIT (LENGTH_MEASURE( 1.000000000000000082E-05 ), #190, 'distance_accuracy_value', 'NONE');
#52 = ORIENTED_EDGE ( 'NONE', *, *, #172, .F. ) ;
#53 = AXIS2_PLACEMENT_3D ( 'NONE', #90, #160, #79 ) ;
#54 = EDGE_LOOP ( 'NONE', ( #169, #18, #27, #100 ) ) ;
#55 = FACE_OUTER_BOUND ( 'NONE', #66, .T. ) ;
#56 = ADVANCED_BREP_SHAPE_REPRESENTATION ( 'tankVolumeCalculatorV2', ( #13, #53 ), #7 ) ;
#57 = DIRECTION ( 'NONE',  ( 0.000000000000000000, 1.000000000000000000, 0.000000000000000000 ) ) ;
#58 = DIRECTION ( 'NONE',  ( 0.000000000000000000, 0.000000000000000000, -1.000000000000000000 ) ) ;
#59 = AXIS2_PLACEMENT_3D ( 'NONE', #72, #42, #198 ) ;
#60 = VERTEX_POINT ( 'NONE', #94 ) ;
#61 = DIRECTION ( 'NONE',  ( 0.000000000000000000, 0.000000000000000000, -1.000000000000000000 ) ) ;
#62 = ORIENTED_EDGE ( 'NONE', *, *, #146, .F. ) ;
#63 = CARTESIAN_POINT ( 'NONE',  ( 4.592425496802574367E-14, 770.0000000000000000, 375.0000000000000000 ) ) ;
#64 = EDGE_CURVE ( 'NONE', #155, #60, #116, .T. ) ;
#65 = APPLICATION_PROTOCOL_DEFINITION ( 'draft international standard', 'automotive_design', 1998, #48 ) ;
#66 = EDGE_LOOP ( 'NONE', ( #83, #130 ) ) ;
#67 = ORIENTED_EDGE ( 'NONE', *, *, #137, .T. ) ;
#68 = ADVANCED_FACE ( 'NONE', ( #21 ), #134, .T. ) ;
#69 = DIRECTION ( 'NONE',  ( 0.000000000000000000, 0.000000000000000000, -1.000000000000000000 ) ) ;
#70 = DIRECTION ( 'NONE',  ( -1.000000000000000000, 0.000000000000000000, 0.000000000000000000 ) ) ;
#71 = AXIS2_PLACEMENT_3D ( 'NONE', #193, #29, #46 ) ;
#72 = CARTESIAN_POINT ( 'NONE',  ( 0.000000000000000000, 799.6693674049826086, 0.000000000000000000 ) ) ;
#73 = AXIS2_PLACEMENT_3D ( 'NONE', #202, #57, #175 ) ;
#74 = CARTESIAN_POINT ( 'NONE',  ( 0.000000000000000000, 170.0000000000000284, 0.000000000000000000 ) ) ;
#75 = VERTEX_POINT ( 'NONE', #165 ) ;
#76 = DIRECTION ( 'NONE',  ( -0.000000000000000000, -1.000000000000000000, -0.000000000000000000 ) ) ;
#77 =( NAMED_UNIT ( * ) PLANE_ANGLE_UNIT ( ) SI_UNIT ( $, .RADIAN. ) );
#78 = PRESENTATION_LAYER_ASSIGNMENT (  '', '', ( #43 ) ) ;
#79 = DIRECTION ( 'NONE',  ( 1.000000000000000000, 0.000000000000000000, 0.000000000000000000 ) ) ;
#80 = CARTESIAN_POINT ( 'NONE',  ( 0.000000000000000000, 170.0000000000000000, -375.0000000000000000 ) ) ;
#81 = PRODUCT_DEFINITION_CONTEXT ( 'detailed design', #48, 'design' ) ;
#82 = CARTESIAN_POINT ( 'NONE',  ( 0.000000000000000000, 170.0000000000000284, -268.5714285714286120 ) ) ;
#83 = ORIENTED_EDGE ( 'NONE', *, *, #200, .F. ) ;
#84 = AXIS2_PLACEMENT_3D ( 'NONE', #15, #76, #58 ) ;
#85 = CARTESIAN_POINT ( 'NONE',  ( 0.000000000000000000, 170.0000000000000000, 0.000000000000000000 ) ) ;
#86 = DIRECTION ( 'NONE',  ( -0.000000000000000000, -1.000000000000000000, -0.000000000000000000 ) ) ;
#87 = DIRECTION ( 'NONE',  ( -0.000000000000000000, -1.000000000000000000, -0.000000000000000000 ) ) ;
#88 = CIRCLE ( 'NONE', #71, 106.4285714285714306 ) ;
#89 = ORIENTED_EDGE ( 'NONE', *, *, #127, .F. ) ;
#90 = CARTESIAN_POINT ( 'NONE',  ( 0.000000000000000000, 0.000000000000000000, 0.000000000000000000 ) ) ;
#91 = EDGE_LOOP ( 'NONE', ( #67, #49, #16, #89 ) ) ;
#92 = TOROIDAL_SURFACE ( 'NONE', #110, 268.5714285714286120, 106.4285714285714448 ) ;
#93 =( NAMED_UNIT ( * ) PLANE_ANGLE_UNIT ( ) SI_UNIT ( $, .RADIAN. ) );
#94 = CARTESIAN_POINT ( 'NONE',  ( 4.592425496802575629E-14, 170.0000000000000284, 375.0000000000000568 ) ) ;
#95 = EDGE_CURVE ( 'NONE', #75, #163, #97, .T. ) ;
#96 = CARTESIAN_POINT ( 'NONE',  ( 0.000000000000000000, 799.6693674049826086, 0.000000000000000000 ) ) ;
#97 = CIRCLE ( 'NONE', #45, 800.0000000000000000 ) ;
#98 = FACE_OUTER_BOUND ( 'NONE', #35, .T. ) ;
#99 = ADVANCED_FACE ( 'NONE', ( #98 ), #92, .T. ) ;
#100 = ORIENTED_EDGE ( 'NONE', *, *, #112, .F. ) ;
#101 = AXIS2_PLACEMENT_3D ( 'NONE', #120, #3, #191 ) ;
#102 = ORIENTED_EDGE ( 'NONE', *, *, #189, .T. ) ;
#103 = PRODUCT_DEFINITION ( 'UNKNOWN', '', #34, #81 ) ;
#104 = CARTESIAN_POINT ( 'NONE',  ( 0.000000000000000000, 170.0000000000000284, -375.0000000000000568 ) ) ;
#105 = FACE_OUTER_BOUND ( 'NONE', #91, .T. ) ;
#106 = AXIS2_PLACEMENT_3D ( 'NONE', #74, #177, #141 ) ;
#107 = CARTESIAN_POINT ( 'NONE',  ( 0.000000000000000000, 70.00000000000004263, 0.000000000000000000 ) ) ;
#108 = CARTESIAN_POINT ( 'NONE',  ( -2.816428943789100962E-15, 799.6693674049826086, -22.99788760114351760 ) ) ;
#109 = APPLICATION_PROTOCOL_DEFINITION ( 'draft international standard', 'automotive_design', 1998, #38 ) ;
#110 = AXIS2_PLACEMENT_3D ( 'NONE', #187, #166, #69 ) ;
#111 = ORIENTED_EDGE ( 'NONE', *, *, #196, .F. ) ;
#112 = EDGE_CURVE ( 'NONE', #183, #170, #22, .T. ) ;
#113 = DIRECTION ( 'NONE',  ( 0.000000000000000000, 0.000000000000000000, 1.000000000000000000 ) ) ;
#114 = UNCERTAINTY_MEASURE_WITH_UNIT (LENGTH_MEASURE( 1.000000000000000082E-05 ), #194, 'distance_accuracy_value', 'NONE');
#115 = SHAPE_DEFINITION_REPRESENTATION ( #145, #56 ) ;
#116 = LINE ( 'NONE', #148, #151 ) ;
#117 = PLANE ( 'NONE',  #73 ) ;
#118 = ADVANCED_FACE ( 'NONE', ( #10 ), #159, .T. ) ;
#119 =( NAMED_UNIT ( * ) SI_UNIT ( $, .STERADIAN. ) SOLID_ANGLE_UNIT ( ) );
#120 = CARTESIAN_POINT ( 'NONE',  ( 0.000000000000000000, 170.0000000000000284, 0.000000000000000000 ) ) ;
#121 = DIRECTION ( 'NONE',  ( -1.224646799147353207E-16, 0.000000000000000000, -1.000000000000000000 ) ) ;
#122 = COLOUR_RGB ( '',0.7921568627450980005, 0.8196078431372548767, 0.9333333333333333481 ) ;
#123 = DIRECTION ( 'NONE',  ( 0.000000000000000000, 0.000000000000000000, -1.000000000000000000 ) ) ;
#124 = FACE_OUTER_BOUND ( 'NONE', #4, .T. ) ;
#125 = CIRCLE ( 'NONE', #128, 800.0000000000000000 ) ;
#126 = ORIENTED_EDGE ( 'NONE', *, *, #196, .T. ) ;
#127 = EDGE_CURVE ( 'NONE', #170, #75, #40, .T. ) ;
#128 = AXIS2_PLACEMENT_3D ( 'NONE', #108, #195, #121 ) ;
#129 = PRODUCT ( 'tankVolumeCalculatorV2', 'tankVolumeCalculatorV2', '', ( #6 ) ) ;
#130 = ORIENTED_EDGE ( 'NONE', *, *, #132, .F. ) ;
#131 = FILL_AREA_STYLE_COLOUR ( '', #122 ) ;
#132 = EDGE_CURVE ( 'NONE', #155, #183, #144, .T. ) ;
#133 = CARTESIAN_POINT ( 'NONE',  ( 0.000000000000000000, 770.0000000000000000, 0.000000000000000000 ) ) ;
#134 = TOROIDAL_SURFACE ( 'NONE', #14, -22.99788760114351760, 800.0000000000000000 ) ;
#135 = ADVANCED_FACE ( 'NONE', ( #55 ), #117, .T. ) ;
#136 = SURFACE_STYLE_FILL_AREA ( #26 ) ;
#137 = EDGE_CURVE ( 'NONE', #170, #60, #174, .T. ) ;
#138 = DIRECTION ( 'NONE',  ( 0.000000000000000000, 0.000000000000000000, -1.000000000000000000 ) ) ;
#139 =( NAMED_UNIT ( * ) SI_UNIT ( $, .STERADIAN. ) SOLID_ANGLE_UNIT ( ) );
#140 = AXIS2_PLACEMENT_3D ( 'NONE', #133, #9, #199 ) ;
#141 = DIRECTION ( 'NONE',  ( 0.000000000000000000, 0.000000000000000000, -1.000000000000000000 ) ) ;
#142 = ORIENTED_EDGE ( 'NONE', *, *, #64, .F. ) ;
#143 = ADVANCED_FACE ( 'NONE', ( #105 ), #197, .T. ) ;
#144 = CIRCLE ( 'NONE', #140, 375.0000000000000000 ) ;
#145 = PRODUCT_DEFINITION_SHAPE ( 'NONE', 'NONE',  #103 ) ;
#146 = EDGE_CURVE ( 'NONE', #171, #163, #125, .T. ) ;
#147 = DIRECTION ( 'NONE',  ( -0.000000000000000000, -1.000000000000000000, -0.000000000000000000 ) ) ;
#148 = CARTESIAN_POINT ( 'NONE',  ( 4.592425496802574367E-14, 170.0000000000000000, 375.0000000000000000 ) ) ;
#149 = ORIENTED_EDGE ( 'NONE', *, *, #146, .T. ) ;
#150 = CIRCLE ( 'NONE', #50, 375.0000000000000568 ) ;
#151 = VECTOR ( 'NONE', #12, 1000.000000000000000 ) ;
#152 = SURFACE_STYLE_USAGE ( .BOTH. , #185 ) ;
#153 = CIRCLE ( 'NONE', #192, 375.0000000000000000 ) ;
#154 = ADVANCED_FACE ( 'NONE', ( #124 ), #203, .T. ) ;
#155 = VERTEX_POINT ( 'NONE', #63 ) ;
#156 = DIRECTION ( 'NONE',  ( -0.000000000000000000, -1.000000000000000000, -0.000000000000000000 ) ) ;
#157 = DIRECTION ( 'NONE',  ( -0.000000000000000000, -1.000000000000000000, -0.000000000000000000 ) ) ;
#158 = DIRECTION ( 'NONE',  ( 0.000000000000000000, 0.000000000000000000, -1.000000000000000000 ) ) ;
#159 = TOROIDAL_SURFACE ( 'NONE', #59, -22.99788760114351760, 800.0000000000000000 ) ;
#160 = DIRECTION ( 'NONE',  ( 0.000000000000000000, 0.000000000000000000, 1.000000000000000000 ) ) ;
#161 = AXIS2_PLACEMENT_3D ( 'NONE', #85, #86, #138 ) ;
#162 = PRODUCT_RELATED_PRODUCT_CATEGORY ( 'part', '', ( #129 ) ) ;
#163 = VERTEX_POINT ( 'NONE', #179 ) ;
#164 = PRESENTATION_STYLE_ASSIGNMENT (( #152 ) ) ;
#165 = CARTESIAN_POINT ( 'NONE',  ( 0.000000000000000000, 70.00000000000011369, -305.0000000000002842 ) ) ;
#166 = DIRECTION ( 'NONE',  ( -0.000000000000000000, -1.000000000000000000, -0.000000000000000000 ) ) ;
#167 = ADVANCED_FACE ( 'NONE', ( #5 ), #32, .T. ) ;
#168 = DIRECTION ( 'NONE',  ( -0.000000000000000000, -1.000000000000000000, -0.000000000000000000 ) ) ;
#169 = ORIENTED_EDGE ( 'NONE', *, *, #200, .T. ) ;
#170 = VERTEX_POINT ( 'NONE', #104 ) ;
#171 = VERTEX_POINT ( 'NONE', #173 ) ;
#172 = EDGE_CURVE ( 'NONE', #60, #171, #88, .T. ) ;
#173 = CARTESIAN_POINT ( 'NONE',  ( 3.735172737399430223E-14, 70.00000000000011369, 305.0000000000002842 ) ) ;
#174 = CIRCLE ( 'NONE', #101, 375.0000000000000568 ) ;
#175 = DIRECTION ( 'NONE',  ( 0.000000000000000000, -0.000000000000000000, 1.000000000000000000 ) ) ;
#176 = DIRECTION ( 'NONE',  ( -0.000000000000000000, -1.000000000000000000, -0.000000000000000000 ) ) ;
#177 = DIRECTION ( 'NONE',  ( -0.000000000000000000, -1.000000000000000000, -0.000000000000000000 ) ) ;
#178 = ORIENTED_EDGE ( 'NONE', *, *, #184, .F. ) ;
#179 = CARTESIAN_POINT ( 'NONE',  ( -3.295974604355933479E-13, -1.110223024625156540E-13, 0.000000000000000000 ) ) ;
#180 = VECTOR ( 'NONE', #168, 1000.000000000000000 ) ;
#181 = ORIENTED_EDGE ( 'NONE', *, *, #132, .T. ) ;
#182 = DIRECTION ( 'NONE',  ( 0.000000000000000000, 0.000000000000000000, -1.000000000000000000 ) ) ;
#183 = VERTEX_POINT ( 'NONE', #47 ) ;
#184 = EDGE_CURVE ( 'NONE', #171, #75, #2, .T. ) ;
#185 = SURFACE_SIDE_STYLE ('',( #136 ) ) ;
#186 = MECHANICAL_DESIGN_GEOMETRIC_PRESENTATION_REPRESENTATION (  '', ( #43 ), #201 ) ;
#187 = CARTESIAN_POINT ( 'NONE',  ( 0.000000000000000000, 170.0000000000000284, 0.000000000000000000 ) ) ;
#188 = AXIS2_PLACEMENT_3D ( 'NONE', #107, #156, #17 ) ;
#189 = EDGE_CURVE ( 'NONE', #75, #171, #20, .T. ) ;
#190 =( LENGTH_UNIT ( ) NAMED_UNIT ( * ) SI_UNIT ( .MILLI., .METRE. ) );
#191 = DIRECTION ( 'NONE',  ( 0.000000000000000000, 0.000000000000000000, -1.000000000000000000 ) ) ;
#192 = AXIS2_PLACEMENT_3D ( 'NONE', #30, #157, #123 ) ;
#193 = CARTESIAN_POINT ( 'NONE',  ( 3.289051403424320997E-14, 170.0000000000000284, 268.5714285714286120 ) ) ;
#194 =( LENGTH_UNIT ( ) NAMED_UNIT ( * ) SI_UNIT ( .MILLI., .METRE. ) );
#195 = DIRECTION ( 'NONE',  ( 1.000000000000000000, 0.000000000000000000, -1.224646799147353207E-16 ) ) ;
#196 = EDGE_CURVE ( 'NONE', #60, #170, #150, .T. ) ;
#197 = TOROIDAL_SURFACE ( 'NONE', #106, 268.5714285714286120, 106.4285714285714448 ) ;
#198 = DIRECTION ( 'NONE',  ( 0.000000000000000000, 0.000000000000000000, -1.000000000000000000 ) ) ;
#199 = DIRECTION ( 'NONE',  ( 0.000000000000000000, 0.000000000000000000, -1.000000000000000000 ) ) ;
#200 = EDGE_CURVE ( 'NONE', #183, #155, #153, .T. ) ;
#201 =( GEOMETRIC_REPRESENTATION_CONTEXT ( 3 ) GLOBAL_UNCERTAINTY_ASSIGNED_CONTEXT ( ( #51 ) ) GLOBAL_UNIT_ASSIGNED_CONTEXT ( ( #190, #93, #119 ) ) REPRESENTATION_CONTEXT ( 'NONE', 'WORKASPACE' ) );
#202 = CARTESIAN_POINT ( 'NONE',  ( 0.000000000000000000, 770.0000000000000000, 0.000000000000000000 ) ) ;
#203 = CYLINDRICAL_SURFACE ( 'NONE', #161, 375.0000000000000000 ) ;
ENDSEC;
END-ISO-10303-21;
